<svg id="Layer_1" data-name="Layer 1" xmlns="http://www.w3.org/2000/svg" xmlns:xlink="http://www.w3.org/1999/xlink" viewBox="0 0 1216.55 354.94"><defs><style>.cls-1{fill:#fff;}.cls-2{fill:#d1d2d3;}.cls-3{fill:url(#linear-gradient);}.cls-4{fill:url(#linear-gradient-2);}.cls-5{fill:url(#linear-gradient-3);}.cls-6{fill:url(#linear-gradient-4);}</style><linearGradient id="linear-gradient" x1="136.95" y1="369.91" x2="341.39" y2="369.91" gradientUnits="userSpaceOnUse"><stop offset="0" stop-color="#929497"/><stop offset="0.08" stop-color="#aaacae"/><stop offset="0.2" stop-color="#c9cacb"/><stop offset="0.32" stop-color="#e1e1e2"/><stop offset="0.46" stop-color="#f2f2f2"/><stop offset="0.6" stop-color="#fcfcfc"/><stop offset="0.78" stop-color="#fff"/></linearGradient><linearGradient id="linear-gradient-2" x1="232.45" y1="353.05" x2="236.83" y2="319.57" gradientUnits="userSpaceOnUse"><stop offset="0" stop-color="#f1f1f2"/><stop offset="0.11" stop-color="#eaeaeb"/><stop offset="0.27" stop-color="#d5d6d8"/><stop offset="0.43" stop-color="#bbbdbf"/><stop offset="0.55" stop-color="#a5a7a9"/><stop offset="0.7" stop-color="#919295"/><stop offset="0.85" stop-color="#848588"/><stop offset="0.99" stop-color="#808184"/></linearGradient><linearGradient id="linear-gradient-3" x1="233.7" y1="398.72" x2="233.7" y2="372.19" gradientUnits="userSpaceOnUse"><stop offset="0" stop-color="#f1f1f2"/><stop offset="0.1" stop-color="#eaeaeb"/><stop offset="0.25" stop-color="#d5d6d8"/><stop offset="0.4" stop-color="#bbbdbf"/><stop offset="0.52" stop-color="#a5a7a9"/><stop offset="0.68" stop-color="#919295"/><stop offset="0.84" stop-color="#848588"/><stop offset="0.99" stop-color="#808184"/></linearGradient><linearGradient id="linear-gradient-4" x1="265.1" y1="431.31" x2="194.55" y2="339.82" gradientUnits="userSpaceOnUse"><stop offset="0" stop-color="#f1f1f2"/><stop offset="0.1" stop-color="#e5e6e7"/><stop offset="0.27" stop-color="#c6c8ca"/><stop offset="0.32" stop-color="#bbbdbf"/><stop offset="0.38" stop-color="#afb1b3"/><stop offset="0.54" stop-color="#929496"/><stop offset="0.69" stop-color="#7e7f81"/><stop offset="0.85" stop-color="#717274"/><stop offset="0.99" stop-color="#6d6e70"/></linearGradient></defs><path class="cls-1" d="M107.81,271.83h0a11.79,11.79,0,0,0,14.85-2.53,154.37,154.37,0,0,1,167.67-44.61A11.77,11.77,0,0,0,306,214.62a11.94,11.94,0,0,0-4.95-3.35,178,178,0,0,0-193.28,51.42,11.83,11.83,0,0,0-2.85,6.8A12.24,12.24,0,0,0,107.81,271.83Z" transform="translate(-61.72 -192.43)"/><path class="cls-1" d="M397.82,431.77A178,178,0,0,0,346.4,238.49a11.83,11.83,0,0,0-6.8-2.85,12.24,12.24,0,0,0-2.34,2.87,11.79,11.79,0,0,0,2.53,14.85A154.35,154.35,0,0,1,384.4,421a11.79,11.79,0,0,0,5.19,14.15h0a11.7,11.7,0,0,0,4.89,1.54A11.82,11.82,0,0,0,397.82,431.77Z" transform="translate(-61.72 -192.43)"/><path class="cls-1" d="M141.13,501.28h0a11.79,11.79,0,0,0-2.53-14.85A154.37,154.37,0,0,1,94,318.76a11.8,11.8,0,0,0-5.18-14.15h0a11.76,11.76,0,0,0-3.27-1.28,11.84,11.84,0,0,0-5,6.17A178,178,0,0,0,132,502.77a11.81,11.81,0,0,0,5.16,2.6A11.63,11.63,0,0,0,141.13,501.28Z" transform="translate(-61.72 -192.43)"/><path class="cls-2" d="M239.49,192.43a178,178,0,0,0-134.64,61.42,11.84,11.84,0,0,0,.09,15.64,11.83,11.83,0,0,1,2.85-6.8,177.86,177.86,0,0,1,193.28-51.42,11.87,11.87,0,0,1,4.95,3.35,11.86,11.86,0,0,0-7.9-12.19,176.51,176.51,0,0,0-58.63-10" transform="translate(-61.72 -192.43)"/><path class="cls-2" d="M347.48,232.65a11.83,11.83,0,0,0-7.88,3,11.83,11.83,0,0,1,6.8,2.85,178,178,0,0,1,51.42,193.27,11.73,11.73,0,0,1-3.34,5c.33,0,.66,0,1,0a11.87,11.87,0,0,0,11.19-7.95,178,178,0,0,0-51.42-193.27,11.82,11.82,0,0,0-7.76-2.9" transform="translate(-61.72 -192.43)"/><path class="cls-2" d="M82.92,303A11.86,11.86,0,0,0,71.73,311a178,178,0,0,0,51.43,193.27,11.8,11.8,0,0,0,7.75,2.9,12,12,0,0,0,6.25-1.77,11.92,11.92,0,0,1-5.16-2.6A178,178,0,0,1,80.57,309.5a11.84,11.84,0,0,1,5-6.17,11.62,11.62,0,0,0-2.61-.3" transform="translate(-61.72 -192.43)"/><path class="cls-2" d="M373.45,470.3a11.77,11.77,0,0,1-2.85,6.8A178,178,0,0,1,236,538.53a176.22,176.22,0,0,1-58.63-10,11.91,11.91,0,0,1-5-3.35,11.87,11.87,0,0,0,7.9,12.19,177.86,177.86,0,0,0,193.28-51.42,11.85,11.85,0,0,0-.1-15.64" transform="translate(-61.72 -192.43)"/><path class="cls-1" d="M177.33,528.52A178,178,0,0,0,370.6,477.1a11.83,11.83,0,0,0,2.85-6.8,12,12,0,0,0-2.86-2.34h0a11.79,11.79,0,0,0-14.85,2.53A154.37,154.37,0,0,1,188.06,515.1a11.79,11.79,0,0,0-14.15,5.19h0a11.7,11.7,0,0,0-1.54,4.88A11.91,11.91,0,0,0,177.33,528.52Z" transform="translate(-61.72 -192.43)"/><path class="cls-3" d="M329.59,410.28c-6.24-5.28-12.49-1.92-15.72,1.14-16,15.07-39.95,34.32-69,34.32-29.26,0-56.72-26.2-63.08-54.21,16.6-10.29,45.57-16.47,70.25-16.47,26.59,0,35,7.91,50.69,7.91,6.69,0,18.92-1,30.92-15.52,12.37-14.92,7.05-33.09,3.51-41a104.49,104.49,0,0,0-95.44-61.41C195.36,265.07,137,299.55,137,373.38c0,60.5,56,102.84,104.77,101.34,39.32-1.21,67.4-19.82,88.88-48.62C333.72,421.92,335.68,415.42,329.59,410.28Zm-37.35-90.76c8,8.57.13,22-9.75,19.75-12.61-2.9-26.13-7.62-51.17-4.64-38.69,4.61-53.7,14.05-53.7,14.05,7.58-21,24.18-44.72,55.54-48.71C233.16,300,268.16,293.77,292.24,319.52Z" transform="translate(-61.72 -192.43)"/><path class="cls-4" d="M292.24,319.52C268.16,293.77,233.16,300,233.16,300c-31.36,4-48,27.71-55.54,48.71,0,0,8.86-5.56,30.45-10.23h0C219.19,300.86,271.66,302.23,292.24,319.52Z" transform="translate(-61.72 -192.43)"/><path class="cls-5" d="M285.61,380.15h0c-8.33-2.27-17.7-5.09-33.57-5.09-24.68,0-53.65,6.18-70.25,16.46l24.8,2C229,378.29,270.11,375.52,285.61,380.15Z" transform="translate(-61.72 -192.43)"/><path class="cls-6" d="M256.37,437.31c-38.16,0-49.78-43.83-49.78-43.83l-24.8-2h0c6.36,28,33.82,54.21,63.08,54.21,27.77,0,50.87-17.59,66.83-32.3C304.89,419.52,282.72,437.31,256.37,437.31Z" transform="translate(-61.72 -192.43)"/><path class="cls-1" d="M569.7,326a54.35,54.35,0,0,0-18.39-14.16,56.65,56.65,0,0,0-24.67-5.22,56.91,56.91,0,0,0-43,19,63.62,63.62,0,0,0-12.42,20.75,72.07,72.07,0,0,0-4.45,25.39,70,70,0,0,0,4.92,26.48,63.59,63.59,0,0,0,13.38,20.6,60,60,0,0,0,19.82,13.3A62.35,62.35,0,0,0,529,436.82c11.75,0,21.81-2.17,29.91-6.44a76.33,76.33,0,0,0,21.38-16.94l.86-1-13.24-11.89-.87.9a63.44,63.44,0,0,1-16.31,12.29c-5.84,3-13,4.56-21.27,4.56a42.5,42.5,0,0,1-14.92-2.62,40.1,40.1,0,0,1-22.17-20,46.91,46.91,0,0,1-4.46-15.36h96.59l.12-1.17c.14-1.35.26-2.65.26-3.79v-2.73A84.75,84.75,0,0,0,581.07,347,61.58,61.58,0,0,0,569.7,326Zm-6,36.87H488A51.61,51.61,0,0,1,492,348.45a46.44,46.44,0,0,1,8.42-12.67,35,35,0,0,1,11.65-8.26,33.69,33.69,0,0,1,14-3,35.92,35.92,0,0,1,15.43,3.17,34,34,0,0,1,11.34,8.6A42.88,42.88,0,0,1,560.41,349,55.22,55.22,0,0,1,563.72,362.82Z" transform="translate(-61.72 -192.43)"/><path class="cls-1" d="M712,323.6a58.92,58.92,0,0,0-41.08-17A50.74,50.74,0,0,0,655,308.9a53.35,53.35,0,0,0-23.46,14.89,90.57,90.57,0,0,0-6.14,7.25V258.86h-20.8V434h20.8v-20.7a76.32,76.32,0,0,0,5.93,6.83,57.4,57.4,0,0,0,10.51,8.49,55.44,55.44,0,0,0,13.08,5.8,56,56,0,0,0,16,2.18,57.39,57.39,0,0,0,22.1-4.48,59,59,0,0,0,19.11-12.8A62.41,62.41,0,0,0,725.5,398.9a69.86,69.86,0,0,0,5.06-27.2v-.49c0-10.25-1.71-19.44-5.06-27.31A61.78,61.78,0,0,0,712,323.6Zm-2.7,47.87v.46A52.88,52.88,0,0,1,706,391.28a43.07,43.07,0,0,1-9,14.36,37.73,37.73,0,0,1-13.23,8.9,41.85,41.85,0,0,1-32.09-.23A45.22,45.22,0,0,1,637.92,405a43.67,43.67,0,0,1-9.64-14.47,48.4,48.4,0,0,1-3.57-18.87v-.49a46.71,46.71,0,0,1,3.56-18.49,45.09,45.09,0,0,1,9.66-14.48,44.58,44.58,0,0,1,13.77-9.44,39.73,39.73,0,0,1,15.9-3.3,41.42,41.42,0,0,1,16,3.19,40.16,40.16,0,0,1,13.26,9.17A44.74,44.74,0,0,1,706,352.32,52.2,52.2,0,0,1,709.29,371.47Z" transform="translate(-61.72 -192.43)"/><polygon class="cls-1" points="1055.26 116.75 1028.91 116.75 964.87 183.57 964.87 116.75 944.04 116.75 944.04 241.54 964.87 241.54 964.87 208.86 988.21 185.25 1031.41 241.54 1056.47 241.54 1002.59 170.62 1055.26 116.75"/><path class="cls-1" d="M799.27,307.28a90.61,90.61,0,0,0-24.2,2.94A128.88,128.88,0,0,0,754.3,318l-1.08.51,6.32,17.43,1.3-.61A99.87,99.87,0,0,1,778,329a74.17,74.17,0,0,1,19.38-2.33c11.13,0,19.82,2.68,25.81,8s9,13.08,9,23.56v2a154.14,154.14,0,0,0-15.37-3.34,127.24,127.24,0,0,0-20.64-1.43,81.51,81.51,0,0,0-21.5,2.65,52.91,52.91,0,0,0-17,7.74,35.3,35.3,0,0,0-11.14,12.86,38.67,38.67,0,0,0-3.92,18v.5a35.41,35.41,0,0,0,4,17.17,39.53,39.53,0,0,0,10.65,12.33,44.79,44.79,0,0,0,15.1,7.43,62.1,62.1,0,0,0,17.12,2.41c10.91,0,20.16-2.16,27.49-6.43a62.58,62.58,0,0,0,15.14-12.06V434h20.56V358c0-15.75-4.42-28.15-13.15-36.85C830.48,311.94,816.9,307.28,799.27,307.28Zm33.18,70.1v10.29a26.14,26.14,0,0,1-3,12.68,32.46,32.46,0,0,1-8.34,9.95,39,39,0,0,1-12.45,6.45,49.77,49.77,0,0,1-15.38,2.3A39.19,39.19,0,0,1,782,417.46a30.37,30.37,0,0,1-9.37-4.53,21.08,21.08,0,0,1-6.34-7.19,20,20,0,0,1-2.3-9.58v-.47c0-7.05,2.86-12.52,8.76-16.72s14.53-6.46,25.49-6.46A109.89,109.89,0,0,1,818,374.14C823.23,375.13,828.09,376.22,832.45,377.38Z" transform="translate(-61.72 -192.43)"/><path class="cls-1" d="M971.25,320.59a41.84,41.84,0,0,0-15.12-10.36,53,53,0,0,0-20.22-3.66c-10.78,0-19.7,2.43-26.5,7.21a59.55,59.55,0,0,0-14,13.66V309.17H874.57V434h20.82V362.85A42.25,42.25,0,0,1,898,347.77a33.59,33.59,0,0,1,7.44-11.68,32.26,32.26,0,0,1,11.22-7.5,37.68,37.68,0,0,1,14.08-2.6c10.41,0,18.51,3.18,24,9.45s8.38,15.07,8.38,26V434H984V356.81a59.76,59.76,0,0,0-3.29-20.29A45.57,45.57,0,0,0,971.25,320.59Z" transform="translate(-61.72 -192.43)"/><rect class="cls-1" x="1073.74" y="116.75" width="20.82" height="124.79"/><polygon class="cls-1" points="1114.1 116.75 1114.1 137.57 1154.92 137.57 1154.92 241.54 1175.74 241.54 1175.74 137.57 1216.55 137.57 1216.55 116.75 1114.1 116.75"/></svg>