<?xml version="1.0" encoding="UTF-8"?>
<svg width="120px" height="35px" viewBox="0 0 120 35" version="1.1" xmlns="http://www.w3.org/2000/svg" xmlns:xlink="http://www.w3.org/1999/xlink">
    <title>logo_ebankIT</title>
    <defs>
        <linearGradient x1="-7.00771179e-14%" y1="50.0174005%" x2="99.99566%" y2="50.0174005%" id="linearGradient-1">
            <stop stop-color="#16ABE2" offset="0%"></stop>
            <stop stop-color="#D6DE27" offset="100%"></stop>
        </linearGradient>
        <linearGradient x1="47.8406192%" y1="60.9128186%" x2="51.6580174%" y2="48.3333%" id="linearGradient-2">
            <stop stop-color="#76CEEF" offset="0%"></stop>
            <stop stop-color="#6FC8EB" offset="6%"></stop>
            <stop stop-color="#5AB9E1" offset="16%"></stop>
            <stop stop-color="#39A0D0" offset="27%"></stop>
            <stop stop-color="#0B7DB8" offset="40%"></stop>
            <stop stop-color="#0074B2" offset="43%"></stop>
            <stop stop-color="#0A5A95" offset="53%"></stop>
            <stop stop-color="#154078" offset="65%"></stop>
            <stop stop-color="#1C2D63" offset="77%"></stop>
            <stop stop-color="#212256" offset="88%"></stop>
            <stop stop-color="#221E52" offset="100%"></stop>
        </linearGradient>
        <linearGradient x1="50%" y1="128.243021%" x2="50%" y2="-15.8182813%" id="linearGradient-3">
            <stop stop-color="#76CEEF" offset="0%"></stop>
            <stop stop-color="#6FC8EB" offset="6%"></stop>
            <stop stop-color="#5AB9E1" offset="15%"></stop>
            <stop stop-color="#39A0D0" offset="25%"></stop>
            <stop stop-color="#0B7DB8" offset="37%"></stop>
            <stop stop-color="#0074B2" offset="40%"></stop>
            <stop stop-color="#0A5A95" offset="50%"></stop>
            <stop stop-color="#154078" offset="63%"></stop>
            <stop stop-color="#1C2D63" offset="75%"></stop>
            <stop stop-color="#212256" offset="88%"></stop>
            <stop stop-color="#221E52" offset="100%"></stop>
        </linearGradient>
        <linearGradient x1="64.1266392%" y1="54.0714056%" x2="9.8238535%" y2="24.6892934%" id="linearGradient-4">
            <stop stop-color="#3FA4D3" offset="0%"></stop>
            <stop stop-color="#339BCD" offset="9%"></stop>
            <stop stop-color="#1484BD" offset="24%"></stop>
            <stop stop-color="#0074B2" offset="33%"></stop>
            <stop stop-color="#0A5A95" offset="44%"></stop>
            <stop stop-color="#154078" offset="58%"></stop>
            <stop stop-color="#1C2D63" offset="73%"></stop>
            <stop stop-color="#212256" offset="86%"></stop>
            <stop stop-color="#221E52" offset="100%"></stop>
        </linearGradient>
    </defs>
    <g id="logo_ebankIT" stroke="none" stroke-width="1" fill="none" fill-rule="evenodd">
        <g id="logoEbankit_2020_main_horizontal" transform="translate(0.000000, 0.096549)" fill-rule="nonzero">
            <path d="M4.50714873,7.76598192 L4.50714873,7.76598192 C4.98801501,8.04419291 5.59887416,7.94017279 5.96055875,7.51848809 C10.0148602,2.8388856 16.5156889,1.10960498 22.359244,3.15628595 C22.8816307,3.34033194 23.4610941,3.1271722 23.7396878,2.64847987 C23.8249865,2.50266369 23.8765363,2.33959111 23.8905505,2.17124076 C23.7596385,2.02226836 23.5925625,1.909526 23.4054232,1.84387839 C16.6695232,-0.512301751 9.17781587,1.48079722 4.5032046,6.87263763 C4.34177416,7.05878768 4.24400954,7.29162639 4.22415776,7.53722268 C4.30586109,7.62789381 4.40136712,7.70509729 4.50714873,7.76598192 Z" id="Path" fill="#6FCFEB"></path>
            <path d="M27.948069,3.93426459 C27.6636523,3.93439537 27.3893431,4.03976379 27.1779786,4.23007395 C27.4235749,4.24992573 27.6564136,4.34769035 27.8425637,4.50912079 C33.2346476,9.18357995 35.22779,16.6754503 32.8713229,23.4113394 C32.8064072,23.5988454 32.6935469,23.7660962 32.5439606,23.8964667 C32.5774856,23.8964667 32.6100247,23.8964667 32.6425637,23.8964667 C33.1358613,23.8955463 33.5745766,23.5826303 33.7360723,23.116516 C36.0927013,16.3803279 34.099565,8.88808947 28.7073131,4.21331142 C28.4969357,4.03066375 28.2276566,3.93032028 27.9490551,3.93032028" id="Path" fill="#7989C6"></path>
            <path d="M32.8713229,23.4123254 C35.2275031,16.6764254 33.2344041,9.18471809 27.8425637,4.51010682 C27.6564136,4.34867638 27.4235749,4.25091176 27.1779786,4.23105998 C26.9297982,4.45209966 26.7894091,4.76971954 26.7929335,5.10204341 C26.7965924,5.43436728 26.9438135,5.74887874 27.1967132,5.96450288 C31.8761477,10.0184854 33.6054344,16.5189461 31.5589154,22.3622021 C31.3752851,22.8845859 31.5883476,23.463785 32.0667214,23.7426459 L32.0667214,23.7426459 C32.2129548,23.8278091 32.3763159,23.8793436 32.5449466,23.8935086 C32.6931687,23.7637267 32.8055546,23.5980339 32.8713229,23.4123254 L32.8713229,23.4123254 Z" id="Path" fill="#385CAD"></path>
            <path d="M7.76696795,30.2070666 L7.76696795,30.2070666 C8.04467632,29.7268097 7.94158125,29.116934 7.52144618,28.7546426 C2.84078362,24.7010523 1.11030049,18.2001115 3.15628595,12.3559573 C3.34050542,11.833808 3.12778587,11.2544162 2.6494659,10.9755136 L2.6494659,10.9755136 C2.55003126,10.9176254 2.44227807,10.8753888 2.32999178,10.8502876 C2.10382534,10.9893602 1.93249711,11.2021275 1.84486442,11.4527527 C-0.511764608,18.1889408 1.48137168,25.6811792 6.87362366,30.3559573 C7.01809407,30.4807101 7.19119422,30.5677683 7.37748562,30.6093673 C7.53879663,30.5098031 7.67267761,30.3715159 7.76696795,30.2070666 Z" id="Path" fill="#E0E621"></path>
            <path d="M17.3866886,-3.30788246e-06 C12.3330875,-0.00311168252 7.52737683,2.18925091 4.21725555,6.00788825 C3.83626013,6.44789636 3.84047849,7.10216385 4.22711586,7.53722268 C4.24676374,7.29157674 4.34455403,7.05867689 4.5061627,6.87263763 C9.17818423,1.47665214 16.6726689,-0.517185725 23.4083813,1.84387839 C23.5955206,1.909526 23.7625966,2.02226836 23.8935086,2.17124076 C23.9375982,1.6441355 23.6196974,1.15390322 23.1204601,0.979129006 C21.2784132,0.330515051 19.3395932,-0.00056805899 17.3866886,-3.30788246e-06" id="Path" fill="#A0DDF1"></path>
            <path d="M2.07263763,10.8177486 C1.58011193,10.8182301 1.14162882,11.1297943 0.979129006,11.5947412 C-1.37705113,18.3306412 0.616047837,25.8223485 6.00788825,30.4969597 C6.39030168,30.8306688 6.94539759,30.8766271 7.37748562,30.6103533 C7.19119422,30.5687543 7.01809407,30.4816961 6.87362366,30.3569433 C1.48137168,25.6821653 -0.511764608,18.1899269 1.84486442,11.4537387 C1.93249711,11.2031136 2.10382534,10.9903462 2.32999178,10.8512736 C2.24592531,10.8317735 2.159922,10.82185 2.07362366,10.8216927" id="Path" fill="#ECED74"></path>
            <path d="M30.4880855,27.1779786 C30.4683069,27.4231151 30.3709055,27.6555658 30.2100247,27.8415776 C25.5378367,33.2379753 18.0428204,35.2318506 11.30682,32.8703369 C11.1198006,32.8044508 10.952781,32.6917465 10.8216927,32.5429745 C10.7777155,33.0698177 11.0956571,33.5597074 11.5947412,33.7341002 C13.4369846,34.3832703 15.3762243,34.7143681 17.3294988,34.7132329 C22.3820804,34.7165148 27.1868264,32.5244596 30.4959737,28.706327 C30.877263,28.266801 30.873042,27.6125484 30.4861134,27.1779786" id="Path" fill="#5FC9EB"></path>
            <path d="M11.30682,32.8713229 C18.0430192,35.227665 25.5350945,33.2345721 30.2100247,27.8425637 C30.3706275,27.6559947 30.4679743,27.423329 30.4880855,27.1779786 C30.4075428,27.0872746 30.3130031,27.0100449 30.2080526,26.9492194 L30.2080526,26.9492194 C29.7270385,26.6718318 29.1167391,26.7757566 28.7546426,27.1967132 C24.6995366,31.8770636 18.1974406,33.6063694 12.3529992,31.5589154 C11.8308526,31.3751113 11.2517249,31.5877339 10.9725555,32.0657354 L10.9725555,32.0657354 C10.8878123,32.2121542 10.8363081,32.375419 10.8216927,32.5439606 C10.952781,32.6927325 11.1198006,32.8054368 11.30682,32.8713229 Z" id="Path" fill="#00B2E3"></path>
            <path d="M26.1988496,21.3071487 C25.5884963,20.7904684 24.9771569,21.1198028 24.661627,21.4185703 C23.0967954,22.8976171 20.7539852,24.7710764 17.9122432,24.7710764 C15.0527527,24.7710764 12.3658176,22.2073952 11.7426459,19.4691865 C13.3666393,18.4634347 16.199507,17.8589975 18.6142975,17.8589975 C21.2144618,17.8589975 22.0338537,18.632046 23.5720624,18.632046 C24.2258012,18.632046 25.421857,18.5334429 26.5962202,17.114544 C27.8060805,15.6552177 27.2864421,13.8783895 26.938373,13.1073131 C25.2803108,9.44282099 21.626738,7.09189006 17.6046015,7.10136815 C13.0688578,7.10136815 7.357765,10.4736237 7.357765,17.6943303 C7.357765,23.6105177 12.8361545,27.7518488 17.6046015,27.6059162 C21.4501233,27.4866064 24.1962202,25.6663928 26.2974528,22.8512736 C26.6021364,22.4450288 26.7934265,21.8100247 26.1988496,21.3071487 Z M22.5456039,12.4328677 C23.3285127,13.2709942 22.5584224,14.5863599 21.5921118,14.3645029 C20.3585867,14.0805259 19.0363188,13.6190633 16.5870173,13.9109285 C12.8036154,14.3615448 11.335415,15.28447 11.335415,15.28447 C12.0769104,13.230567 13.7018899,10.9114215 16.767461,10.5209532 C16.767461,10.5189811 20.1899753,9.9125719 22.5456039,12.4308956 L22.5456039,12.4328677 Z" id="Shape" fill="url(#linearGradient-1)"></path>
            <path d="M22.5456039,12.4308956 C20.1899753,9.9125719 16.767461,10.5189811 16.767461,10.5189811 C13.6999178,10.9133936 12.0769104,13.2285949 11.335415,15.2824979 C11.335415,15.2824979 12.2011504,14.7391947 14.3132293,14.2826623 L14.3132293,14.2826623 C15.4008217,10.6057518 20.5370583,10.7388661 22.5456039,12.4308956 Z" id="Path" fill="url(#linearGradient-2)"></path>
            <path d="M21.8967954,18.3599014 L21.8967954,18.3599014 C21.0833196,18.1380444 20.1653246,17.8668858 18.6142975,17.8668858 C16.199507,17.8668858 13.3666393,18.4713229 11.7426459,19.4770748 L14.1682827,19.6683648 C16.358258,18.1784717 20.3812654,17.9073131 21.8967954,18.3599014 Z" id="Path" fill="url(#linearGradient-3)"></path>
            <path d="M19.0373048,23.9506984 C15.3051767,23.9506984 14.1682827,19.6644207 14.1682827,19.6644207 L11.7426459,19.4731306 L11.7426459,19.4731306 C12.3658176,22.2133114 15.0507806,24.7750205 17.9122432,24.7750205 C20.6287592,24.7750205 22.8887428,23.0553821 24.4496302,21.6197206 C23.7830731,22.2103533 21.6147905,23.9506984 19.0373048,23.9506984 Z" id="Path" fill="url(#linearGradient-4)"></path>
            <path d="M50.0884141,13.0698439 C49.5916206,12.478988 48.9730845,12.002389 48.2751027,11.6726376 C46.7466042,10.9912265 45.0015743,10.9862142 43.4691865,11.6588332 C42.7588679,11.9830337 42.1228413,12.4499007 41.6006574,13.0304026 C41.0655791,13.6279814 40.6498771,14.3224917 40.3760066,15.0764174 C40.0805663,15.877801 39.9319307,16.725859 39.9372227,17.5799507 C39.9282655,18.4738163 40.093026,19.360911 40.42235,20.1919474 C40.7263963,20.9480883 41.1744695,21.6379468 41.7416598,22.2231717 C42.2989572,22.7862224 42.9634925,23.2318165 43.6959737,23.5336072 C44.4498333,23.847278 45.2587604,24.0071861 46.0752671,24.0039924 C47.2338537,24.0039924 48.2258012,23.7909614 49.0244864,23.36894 C49.8215344,22.9432825 50.5355959,22.3778446 51.1326212,21.6995892 L51.2174199,21.600986 L49.9119145,20.4285949 L49.8261298,20.5183237 C49.3587251,21.0058697 48.8156641,21.414747 48.2179129,21.7291701 C47.6420707,22.0249795 46.9360723,22.1788003 46.1206245,22.1788003 C45.6187246,22.1814812 45.1204247,22.0939782 44.6494659,21.9204601 C43.6935641,21.5699025 42.9102592,20.8632675 42.4634347,19.9483977 C42.2314799,19.4723486 42.0827412,18.9601006 42.0236647,18.4338537 L51.5477403,18.4338537 L51.5595727,18.3175021 C51.5733772,18.1853739 51.5852095,18.0562038 51.5852095,17.9437962 L51.5852095,17.6746097 C51.5899517,16.8165158 51.4625769,15.962805 51.2075596,15.1434675 C50.9736134,14.3857626 50.5933951,13.68127 50.0884141,13.0698439 Z M49.4967954,16.705341 L42.032539,16.705341 C42.0945654,16.2163972 42.2274289,15.7390848 42.4269515,15.2884141 C42.6333663,14.8290005 42.9138466,14.4066145 43.2571898,14.0381265 C43.5800159,13.6907806 43.9710904,13.4138395 44.4059162,13.2246508 C44.8395545,13.0282787 45.3103325,12.9273977 45.7863599,12.9288414 C46.3103146,12.9188675 46.8299538,13.0252875 47.3078061,13.2404273 C47.7361751,13.4410416 48.1172423,13.7300344 48.4259655,14.0884141 C48.7419205,14.4587134 48.99175,14.8806551 49.1645029,15.3357436 C49.3348868,15.7765175 49.4472498,16.2375704 49.4987675,16.7073131 L49.4967954,16.705341 Z" id="Shape" fill="#00B2E3"></path>
            <path d="M64.1196385,12.8371405 C63.039659,11.7715899 61.5861475,11.170088 60.0690222,11.1608874 C59.5369853,11.1528543 59.007073,11.2297448 58.4992605,11.3886606 C58.0494308,11.5287831 57.6200807,11.7277099 57.22235,11.9802794 C56.8416996,12.2265718 56.493529,12.5197506 56.1860312,12.852917 C55.9718503,13.0807908 55.7697651,13.3197384 55.5806081,13.5687757 L55.5806081,6.45258833 L53.5296631,6.45258833 L53.5296631,23.7199671 L55.5806081,23.7199671 L55.5806081,21.6788825 C55.7622874,21.9142064 55.9575237,22.1387446 56.1653246,22.3513558 C56.4763543,22.6705005 56.8242371,22.9515209 57.2016434,23.1884963 C57.6047917,23.4347678 58.0383648,23.6273564 58.4913722,23.7613804 C59.0042603,23.9080539 59.535595,23.9801161 60.0690222,23.9753492 C60.8174638,23.9736578 61.5581349,23.8235127 62.2481512,23.5336072 C62.9534116,23.2414154 63.5938306,22.8124587 64.1324569,22.2714873 C64.7000285,21.6952431 65.1483561,21.0126996 65.4517666,20.2629417 C65.7951346,19.4107743 65.9647658,18.4985871 65.9506984,17.5799507 L65.9506984,17.5316352 C65.9506984,16.5209532 65.7820871,15.6157765 65.4517666,14.8387839 C65.1451166,14.0896933 64.6922541,13.4092264 64.1196385,12.8371405 L64.1196385,12.8371405 Z M63.85341,17.557272 L63.85341,17.6036154 C63.8649733,18.2543395 63.7546088,18.9014769 63.5280197,19.5115859 C63.3286685,20.0375636 63.0270482,20.5188156 62.6405916,20.9275267 C62.2734534,21.3096615 61.8286034,21.6085819 61.3360723,21.8041085 C60.3202355,22.2172989 59.1817079,22.2091387 58.1718981,21.7814297 C57.6663886,21.563864 57.2059186,21.2538743 56.8141331,20.8673788 C56.4050902,20.4604908 56.0818637,19.9756511 55.863599,19.4415776 C55.6232576,18.8507285 55.5035705,18.2177614 55.5115859,17.5799507 L55.5115859,17.5316352 C55.5038126,16.9064007 55.6232405,16.2861133 55.862613,15.7084634 C56.0841433,15.1753623 56.4077078,14.6906854 56.8151191,14.2816763 C57.2054263,13.8896699 57.6664746,13.5751666 58.1738702,13.3548069 C58.6684906,13.1395608 59.2022343,13.0287838 59.7416598,13.0294082 C60.2831292,13.0283211 60.8194115,13.1349072 61.3193098,13.3429745 C61.8126159,13.5507028 62.2584782,13.856667 62.6297453,14.242235 C63.0184283,14.6554145 63.323463,15.1399207 63.5280197,15.6690222 C63.7532202,16.2726314 63.8632558,16.9131121 63.852424,17.557272 L63.85341,17.557272 Z" id="Shape" fill="#00B2E3"></path>
            <polygon id="Path" fill="#00B2E3" points="104.051931 11.4142975 101.453739 11.4142975 95.1391947 18.0029581 95.1391947 11.4142975 93.0852917 11.4142975 93.0852917 23.7189811 95.1391947 23.7189811 95.1391947 20.4976171 97.4405916 18.1695974 101.700247 23.7189811 104.171241 23.7189811 98.8585045 16.7260477"></polygon>
            <path d="M72.7247329,11.2289236 C71.9199075,11.217627 71.1172463,11.3151404 70.3385374,11.5188168 C69.6349693,11.7127218 68.9496986,11.96776 68.2905505,12.2810189 L68.1840592,12.3313065 L68.8072309,14.0499589 L68.935415,13.989811 C69.4792173,13.7324026 70.0456331,13.525773 70.6274445,13.3725555 C71.2515181,13.2121246 71.8940572,13.134874 72.538373,13.1428102 C73.6358258,13.1428102 74.4926869,13.4080526 75.0833196,13.9316352 C75.6739523,14.4552177 75.9707477,15.220378 75.9707477,16.2547247 L75.9707477,16.451931 C75.4713908,16.3169009 74.9655795,16.2069848 74.4552177,16.1225965 C73.7817805,16.0204285 73.1011416,15.9732718 72.4200493,15.9815941 C71.7048705,15.9742943 70.9919177,16.0625015 70.3000822,16.2438784 C69.7003976,16.39609 69.1327287,16.6542124 68.6238291,17.0060805 C68.1599886,17.3331169 67.7829404,17.7683808 67.5253903,18.2741167 C67.2554527,18.8259597 67.1228488,19.4348552 67.1388661,20.0489729 L67.1388661,20.0982744 C67.125507,20.6871539 67.2611778,21.2698599 67.5332786,21.7922761 C67.7951411,22.2657516 68.1527819,22.6794731 68.5834018,23.0070666 C69.0289559,23.3431556 69.5341745,23.5917499 70.072309,23.7396878 C70.6211713,23.8972225 71.1893716,23.9773213 71.7603944,23.9773213 C72.8361545,23.9773213 73.7482334,23.7643385 74.4709942,23.3433032 C75.0272724,23.0267406 75.5309125,22.6255583 75.9638455,22.1541495 L75.9638455,23.7219392 L77.9911257,23.7219392 L77.9911257,16.2281019 C77.9911257,14.6741167 77.5552999,13.451438 76.6944947,12.5935908 C75.8021364,11.6884141 74.463106,11.2289236 72.7247329,11.2289236 Z M75.9963846,18.1410025 L75.9963846,19.1556286 C76.0049044,19.5903652 75.9031346,20.0201729 75.7005752,20.4049302 C75.4958467,20.78436 75.2160543,21.1181651 74.8782251,21.3860312 C74.5105753,21.6703246 74.0947373,21.8860928 73.6506163,22.0230074 C73.159954,22.176788 72.6482798,22.2529736 72.1341002,22.2488085 C71.7576631,22.2514829 71.3828875,22.1986555 71.021857,22.0920296 C70.6905376,21.9977321 70.3779794,21.8469569 70.0979458,21.6463435 C69.8380778,21.4605469 69.6242268,21.2176877 69.472802,20.936401 C69.3196207,20.6453655 69.2416596,20.3206405 69.2460148,19.9917831 L69.2460148,19.9454396 C69.2460148,19.2552177 69.5280197,18.7119145 70.1097781,18.2977814 C70.6915366,17.8836483 71.5424815,17.6608053 72.6231717,17.6608053 C73.2761538,17.6555599 73.9282734,17.7093532 74.5715694,17.8215283 C75.0872638,17.9191454 75.5664749,18.0256368 75.9963846,18.1410025 L75.9963846,18.1410025 Z" id="Shape" fill="#00B2E3"></path>
            <path d="M89.6824979,12.5413311 C89.2674263,12.0944925 88.7581725,11.7455594 88.1916187,11.5198028 C87.5570083,11.2702556 86.8796933,11.1473206 86.1978636,11.1579293 C85.1349219,11.1579293 84.2553821,11.3975349 83.5848809,11.8698439 C83.053418,12.2393933 82.5869385,12.694544 82.2044371,13.2167625 L82.2044371,11.4152835 L80.1495481,11.4152835 L80.1495481,23.7199671 L82.2024651,23.7199671 L82.2024651,16.7073131 C82.1972381,16.2001521 82.2844465,15.6962813 82.4598192,15.220378 C82.6217064,14.7896952 82.871551,14.3974659 83.1934265,14.0686935 C83.5062424,13.7475493 83.883203,13.4959062 84.2997535,13.3301561 C84.7416898,13.1559411 85.213069,13.0685619 85.6880855,13.072802 C86.714544,13.072802 87.5132293,13.3863599 88.0545604,14.0046015 C88.5958915,14.6228431 88.8808546,15.4915366 88.8808546,16.5682827 L88.8808546,23.7179951 L90.9396878,23.7179951 L90.9396878,16.1156943 C90.9479216,15.435399 90.8381619,14.7588253 90.6152835,14.116023 C90.4161449,13.532476 90.0985773,12.996371 89.6824979,12.5413311 Z" id="Path" fill="#00B2E3"></path>
            <rect id="Rectangle" fill="#00B2E3" x="105.874117" y="11.4142975" width="2.05291701" height="12.3046836"></rect>
            <polygon id="Path" fill="#00B2E3" points="109.853739 11.4142975 109.853739 13.4682005 113.878718 13.4682005 113.878718 23.7189811 115.931635 23.7189811 115.931635 13.4682005 119.955629 13.4682005 119.955629 11.4142975"></polygon>
        </g>
    </g>
</svg>